<svg xmlns="http://www.w3.org/2000/svg" viewBox="0 0 1200 675"><defs><linearGradient id="bg" x1="0" y1="0" x2="1" y2="1"><stop stop-color="#fff8f4"/><stop offset="1" stop-color="#f1e2db"/></linearGradient><filter id="s" x="-20%" y="-20%" width="140%" height="140%"><feDropShadow dx="0" dy="14" stdDeviation="20" flood-color="#846a62" flood-opacity=".16"/></filter></defs><rect width="1200" height="675" rx="46" fill="url(#bg)"/><circle cx="1020" cy="105" r="150" fill="#fff" opacity=".25"/><circle cx="130" cy="580" r="180" fill="#fff" opacity=".2"/><g filter="url(#s)"><rect x="175" y="110" width="520" height="440" rx="34" fill="#fbf3ee"/><rect x="225" y="175" width="420" height="24" rx="12" fill="#be9272"/><rect x="225" y="285" width="420" height="24" rx="12" fill="#be9272"/><rect x="225" y="395" width="420" height="24" rx="12" fill="#be9272"/><path d="M275 235c55-55 110-18 145 0-30 40-105 48-145 0ZM445 235c55-55 110-18 145 0-30 40-105 48-145 0ZM285 345c55-55 110-18 145 0-30 40-105 48-145 0ZM455 345c55-55 110-18 145 0-30 40-105 48-145 0Z" fill="#e9c7be"/><path d="M755 500c0-95 30-140 78-168" stroke="#88a078" stroke-width="15" fill="none"/><circle cx="845" cy="320" r="40" fill="#b8caa8"/></g></svg>