<svg xmlns="http://www.w3.org/2000/svg" viewBox="0 0 1200 675"><defs><linearGradient id="bg" x1="0" y1="0" x2="1" y2="1"><stop stop-color="#f8fbfb"/><stop offset="1" stop-color="#f4e7e4"/></linearGradient><filter id="s" x="-20%" y="-20%" width="140%" height="140%"><feDropShadow dx="0" dy="14" stdDeviation="20" flood-color="#846a62" flood-opacity=".16"/></filter></defs><rect width="1200" height="675" rx="46" fill="url(#bg)"/><circle cx="1020" cy="105" r="150" fill="#fff" opacity=".25"/><circle cx="130" cy="580" r="180" fill="#fff" opacity=".2"/><g filter="url(#s)"><rect x="165" y="95" width="870" height="500" rx="35" fill="#fff"/><rect x="235" y="155" width="330" height="370" rx="16" fill="#dceef1"/><rect x="635" y="155" width="330" height="370" rx="16" fill="#dceef1"/><path d="M600 155v370M235 340h730" stroke="#fff" stroke-width="24"/><path d="M235 155 565 525M565 155 235 525M635 155 965 525M965 155 635 525" stroke="#b8c9c9" stroke-width="3" opacity=".75"/><path d="M120 130c110 70 145 180 125 315-7 70-45 125-125 180" fill="#efd5d2"/><path d="M1080 130c-110 70-145 180-125 315 7 70 45 125 125 180" fill="#efd5d2"/></g></svg>