<svg xmlns="http://www.w3.org/2000/svg" viewBox="0 0 800 500"><rect width="800" height="500" fill="#fff7f4"/><circle cx="570" cy="185" r="92" fill="#f6d4c4"/><path d="M478 182c12-95 62-137 132-126 55 8 89 51 91 120-54-47-123-41-223 6z" fill="#4b322e"/><path d="M430 470c18-117 76-180 168-180s150 63 168 180z" fill="#efc4be"/><ellipse cx="540" cy="190" rx="9" ry="6" fill="#4a332f"/><ellipse cx="602" cy="190" rx="9" ry="6" fill="#4a332f"/><path d="M548 234c17 12 35 12 51 0" fill="none" stroke="#c97672" stroke-width="6" stroke-linecap="round"/><rect x="70" y="330" width="310" height="110" rx="18" fill="#fffdf9"/><line x1="105" y1="365" x2="340" y2="365" stroke="#ddcec5" stroke-width="5"/><line x1="105" y1="397" x2="315" y2="397" stroke="#ddcec5" stroke-width="5"/><path d="M315 420l125-64" stroke="#e89aaa" stroke-width="11" stroke-linecap="round"/></svg>